<?xml version="1.0" encoding="utf-8"?>
<!-- Generator: Adobe Illustrator 16.0.4, SVG Export Plug-In . SVG Version: 6.00 Build 0)  -->
<!DOCTYPE svg PUBLIC "-//W3C//DTD SVG 1.1//EN" "http://www.w3.org/Graphics/SVG/1.1/DTD/svg11.dtd">
<svg version="1.1" id="Layer_1" xmlns="http://www.w3.org/2000/svg" xmlns:xlink="http://www.w3.org/1999/xlink" x="0px" y="0px"
	 width="626px" height="155px" viewBox="-176.5 -61.812 626 155" enable-background="new -176.5 -61.812 626 155"
	 xml:space="preserve">
<g>
	<path fill="#CD0F22" stroke="#CD0F22" stroke-width="3" stroke-miterlimit="10" d="M128.899,16.584
		c-1.145,2.665-2.731,5.019-4.758,7.057c-2.028,2.041-4.384,3.637-7.068,4.787c-2.683,1.152-5.54,1.728-8.565,1.728H88.078V13.772
		h20.431c1.644,0,3.026-0.575,4.146-1.728c1.118-1.15,1.678-2.517,1.678-4.096c0-1.645-0.562-3.026-1.684-4.146
		c-1.123-1.118-2.508-1.678-4.158-1.678h-0.99c-3.763,0-7.23-0.593-10.397-1.777s-5.874-2.927-8.118-5.23
		c-1.916-1.908-3.383-4.062-4.406-6.465c-1.024-2.401-1.535-4.984-1.535-7.748c0-2.697,0.474-5.362,1.422-7.995
		c0.949-2.631,2.486-5,4.611-7.106c2.125-2.105,4.892-3.815,8.3-5.133c3.407-1.315,7.611-1.974,12.612-1.974
		c1.579,0,3.272,0.066,5.083,0.197c1.809,0.133,3.585,0.296,5.33,0.494c1.743,0.197,3.371,0.429,4.886,0.691
		c1.513,0.264,2.796,0.56,3.849,0.888l-4.935,15.693c-0.527-0.197-1.3-0.378-2.319-0.543c-1.021-0.163-2.188-0.328-3.504-0.493
		c-1.317-0.164-2.714-0.297-4.195-0.396s-2.879-0.147-4.194-0.147c-1.12,0-2.287,0.049-3.504,0.147
		c-1.218,0.099-2.369,0.33-3.455,0.691c-1.086,0.362-1.974,0.938-2.665,1.728c-0.691,0.789-1.036,1.875-1.036,3.257
		c0,0.986,0.279,1.776,0.84,2.368c0.562,0.593,1.254,1.07,2.081,1.432c0.825,0.362,1.699,0.609,2.623,0.74
		c0.924,0.133,1.749,0.197,2.475,0.197h0.99c3.037,0,5.908,0.577,8.615,1.728c2.705,1.151,5.082,2.748,7.128,4.787
		c2.046,2.04,3.647,4.409,4.802,7.106c1.155,2.698,1.733,5.593,1.733,8.686S130.043,13.919,128.899,16.584z"/>
	<path fill="#CD0F22" stroke="#CD0F22" stroke-width="3" stroke-miterlimit="10" d="M188.061,30.156L185,23.641h-27.043l-3.06,6.515
		h-18.161l34.742-74.321l34.645,74.321H188.061z M171.479-5.376l-6.416,13.621h12.732L171.479-5.376z"/>
	<path fill="#CD0F22" stroke="#CD0F22" stroke-width="3" stroke-miterlimit="10" d="M231.191,34.104l-34.348-73.63h18.062
		l16.285,36.618l16.187-36.618h18.062L231.191,34.104z"/>
	<path fill="#CD0F22" stroke="#CD0F22" stroke-width="3" stroke-miterlimit="10" d="M306.895,30.156l-3.06-6.515h-27.044
		l-3.06,6.515H255.57l34.742-74.321l34.644,74.321H306.895z M290.312-5.376l-6.415,13.621h12.732L290.312-5.376z"/>
	<path fill="#CD0F22" stroke="#CD0F22" stroke-width="3" stroke-miterlimit="10" d="M382.31,28.142
		c-1.643,0.82-3.285,1.526-4.927,2.117c-1.643,0.589-3.367,1.031-5.173,1.329c-1.808,0.295-3.794,0.442-5.961,0.442
		c-5.058,0-9.822-0.954-14.288-2.862c-4.466-1.907-8.358-4.522-11.676-7.847c-3.317-3.321-5.928-7.22-7.833-11.695
		c-1.906-4.475-2.857-9.244-2.857-14.312c0-5,0.964-9.737,2.894-14.213c1.929-4.474,4.545-8.355,7.848-11.646
		c3.304-3.29,7.175-5.905,11.616-7.847c4.439-1.94,9.192-2.912,14.26-2.912c3.356,0,6.663,0.461,9.92,1.382
		c3.257,0.922,6.332,2.27,9.229,4.046l-8.587,13.917c-1.579-0.921-3.257-1.645-5.034-2.172c-1.776-0.525-3.619-0.789-5.527-0.789
		c-2.829,0-5.478,0.527-7.945,1.579c-2.467,1.053-4.623,2.501-6.465,4.343c-1.843,1.843-3.291,3.997-4.343,6.465
		c-1.053,2.468-1.579,5.083-1.579,7.847c0,2.83,0.527,5.478,1.586,7.945c1.057,2.468,2.509,4.623,4.359,6.465
		c1.85,1.843,4.013,3.291,6.489,4.343c2.478,1.053,5.136,1.579,7.977,1.579c0.859,0,1.701-0.064,2.527-0.197
		c0.825-0.131,1.667-0.296,2.526-0.494V6.369h-7.501V-9.028h23.786v34.461C385.724,26.419,383.95,27.321,382.31,28.142z"/>
	<path fill="#CD0F22" stroke="#CD0F22" stroke-width="3" stroke-miterlimit="10" d="M403.126,30.156v-53.298h-7.402v-16.384h47.08
		v16.384h-23.392v11.351h23.392V4h-23.392v9.771h23.392v16.384H403.126z"/>
</g>
<g>
	<path fill="#339933" stroke="#339933" stroke-width="2" stroke-miterlimit="10" d="M179.501,45.883
		c-1.069,0.5-5.417-0.783-5.346-4.275c0.071-4.633,7.556-18.104,7.77-19.316c0.355-2.28,4.633-1.711,2.779,1.782
		c-9.693,18.317-4.49,8.553-7.911,15.608c-2.353,4.775,0.428,4.775,2.28,4.347c3.563-0.855,6.13-2.637,8.695-5.06
		c1.64-1.639,1.497-0.214,0.428,0.855C185.916,42.105,183.635,44.029,179.501,45.883z M187.412,16.875
		c-1.068,0.998-1.924,1.426-2.637,1.283c-1.069-0.214-1.568-0.642-1.568-1.212c0-0.642,0.499-1.496,1.64-2.637
		c1.069-1.141,1.925-1.782,2.637-1.925c0.998-0.214,2.21,0.855,1.925,1.711C189.266,14.879,188.624,15.805,187.412,16.875z"/>
	<path fill="#339933" stroke="#339933" stroke-width="2" stroke-miterlimit="10" d="M183.849,43.389
		c-0.214-0.215-0.143-0.57,0.143-1.141c1.141-2.423,2.993-5.559,5.56-9.479c2.494-3.777,4.704-6.771,6.557-9.052
		c0.285-0.428,0.784-0.784,1.782-0.927c0.285-0.071,0.428-0.071,0.499,0c0,0.143-0.071,0.356-0.214,0.499
		c-3.563,4.134-6.201,8.339-8.054,12.544c-0.214,0.285-0.285,0.642-0.285,0.927c0,0.57,0.214,0.784,0.57,0.784
		c0.214,0,0.569-0.143,0.854-0.499c2.638-2.566,5.56-5.061,8.624-7.556c3.636-2.922,6.059-4.562,7.199-4.988
		c0.57-0.499,1.141-0.927,1.782-1.141c1.068-0.499,1.924-0.57,2.494-0.285c0.642,0.214,0.642,0.784-0.071,1.64
		c-3.421,4.348-6.486,9.407-9.123,14.967c-2.565,5.56-3.92,10.05-4.205,13.4c-0.143,2.209,0.285,3.92,1.354,5.061
		c0.997,1.068,2.28,1.568,3.92,1.568c0.713,0,1.354-0.072,2.066-0.285c2.709-0.785,6.13-2.922,10.192-6.344
		c4.49-3.85,6.771-6.914,6.771-9.266c0-1.996-2.139-1.283-2.139-1.781c0-0.57,1.069-0.998,1.711-0.998
		c0.784,0,1.211,0.57,1.211,1.639c0,0.498-0.143,1.211-0.427,2.066c-0.855,2.781-3.065,5.773-6.415,9.123
		c-4.633,4.562-9.551,7.057-14.825,7.627c-1.924,0.213-3.492-0.355-4.704-1.568c-1.354-1.496-1.853-3.705-1.639-6.699
		c0.284-3.35,1.853-7.697,4.49-12.9c2.209-4.348,4.562-8.411,7.341-12.188c0.143-0.214,0.214-0.499,0.214-0.713
		c0-0.784-0.428-1.141-1.283-1.141c-0.428,0-0.784,0.143-1.141,0.356c-5.345,3.777-10.762,8.98-16.321,15.466
		c-0.499,0.643-1.711,1.141-3.635,1.568C184.205,43.744,183.92,43.674,183.849,43.389z"/>
	<path fill="#339933" stroke="#339933" stroke-width="2" stroke-miterlimit="10" d="M205.089,80.736
		c-2.495-2.779-2.923-6.271-2.923-10.334c0-6.771,2.78-16.395,8.197-28.795c4.774-10.977,9.692-19.815,14.539-26.799
		c0.642-0.713,0.855-1.354,0.855-2.139c0-0.855-0.356-1.497-1.283-1.995c-1.781-0.713-2.352-1.497-1.995-2.21
		c0.285-0.57,2.922-0.855,7.412-0.855c0.356,0-0.214-0.356,0-0.642c4.49-7.056,10.834-14.111,17.319-21.667
		c0.356-0.428,1.711-0.998,3.992-1.853c2.28-0.784,2.922-1.212,4.062-1.212c0.57,0,0.784,0.285,0.784,0.642
		c0,0.285-0.214,0.356-0.713,0.499c-4.49,0.926-11.832,8.41-22.166,22.594c-0.713,0.997-0.57,1.639,0.498,1.639h10.335
		c5.56,0,8.624,0.071,9.408,0.071c0.499,0,0.713,0.071,0.855,0.214c0,0.143-0.57,1.354-1.426,1.426
		c-5.417,0.214-12.401,0.713-21.239,1.141c-0.784,0.143-1.426,0.57-1.782,1.14c-4.989,7.413-9.479,14.397-13.685,22.95
		c-6.628,13.471-10.405,24.661-11.189,33.428c-0.071,1.211-0.071,2.281-0.071,3.42c0,8.268,2.922,12.402,8.767,12.402
		c1.639,0,3.421-0.213,5.56-0.926c5.915-1.854,11.76-5.988,17.89-12.473c6.129-6.486,9.551-12.26,10.334-17.32
		c0-4.42-1.639-6.414-4.775-5.916c-1.425,0.215-2.494,1.141-2.993,1.141c-0.428,0-0.642-0.285-0.57-0.643
		c0.428-0.783,1.069-1.211,3.563-2.209c0.285-0.07,0.57-0.07,0.855-0.07c1.568,0,2.923,0.926,4.348,3.064
		c1.354,2.066,2.139,3.777,1.996,4.846c-0.855,6.273-5.488,13.115-13.613,20.457c-8.196,7.412-15.396,11.26-21.738,11.26
		C210.719,85.012,207.583,83.445,205.089,80.736z"/>
	<path fill="#339933" stroke="#339933" stroke-width="2" stroke-miterlimit="10" d="M248.638,28.849
		c-3.208,0.499-13.827,0.499-19.529,0.499c-2.139,2.851-5.061,7.127-5.346,11.617c-0.214,4.205,2.352,5.203,4.775,4.918
		c3.136-0.355,7.056-1.924,9.622-3.42c0.784-0.428,1.354-0.072,0.57,0.498c-1.996,1.426-6.059,3.85-9.551,4.49
		c-2.852,0.498-7.271-2.779-7.128-6.486c0.499-10.406,11.832-21.952,18.46-24.447c3.564-1.354,5.845,3.564,4.276,6.344
		c-1.496,2.637-5.487,4.562-10.191,5.274c5.202,0,10.976,0,14.041-0.356c1.995-0.214,4.276-1.497,5.416-2.495
		c0.428-0.641,0.998-0.356,0.499,0.285C253.626,26.568,251.274,28.493,248.638,28.849z M240.369,19.084
		c-3.492,1.995-7.27,5.56-10.477,9.052c4.989,0,10.904-2.495,13.186-5.916C245.073,19.156,243.221,17.516,240.369,19.084z"/>
	<path fill="#339933" stroke="#339933" stroke-width="2" stroke-miterlimit="10" d="M240.939,46.311
		c-0.071-0.213-0.071-0.428,0.071-0.713c4.633-7.126,7.77-12.615,9.408-16.463c0.285-0.713,0.428-1.283,0.428-1.782
		c0-0.143-0.071-0.356-0.214-0.784c-0.071-0.214-0.071-0.356,0-0.499c0.57-0.214,2.353-1.211,5.346-2.993
		c0.071-0.143,0.214-0.143,0.285-0.143c0.285,0,0.499,0.143,0.57,0.356c0.143,0.214,0.143,0.57-0.071,0.784
		c-3.065,4.134-5.203,7.27-6.272,9.337c-0.143,0.285-0.214,0.499-0.214,0.712c0,0.214,0.214,0.285,0.784,0.071
		c0.356-0.143,0.713-0.355,0.855-0.569c1.781-2.139,4.205-4.49,7.198-6.914c3.065-2.494,5.417-4.062,7.128-4.775
		c1.496-0.071,2.565,0.071,3.278,0.428c0.071,0.071,0.071,0.071,0.071,0.143c0,0.642-1.497,2.21-2.067,1.854
		c-0.997-0.428-2.209-0.214-3.849,0.641c-6.984,3.85-13.257,10.264-18.816,19.387c0,0.07-0.143,0.285-0.569,0.498
		c-0.713,0.285-1.711,0.713-2.923,1.426C241.153,46.596,241.011,46.596,240.939,46.311z"/>
	<path fill="#339933" stroke="#339933" stroke-width="2" stroke-miterlimit="10" d="M261.538,43.389
		c-0.214-0.215-0.143-0.57,0.143-1.141c1.141-2.423,2.993-5.559,5.56-9.479c2.494-3.777,4.704-6.771,6.557-9.052
		c0.285-0.428,0.784-0.784,1.782-0.927c0.285-0.071,0.428-0.071,0.499,0c0,0.143-0.071,0.356-0.214,0.499
		c-3.563,4.134-6.201,8.339-8.054,12.544c-0.214,0.285-0.285,0.642-0.285,0.927c0,0.57,0.214,0.784,0.57,0.784
		c0.214,0,0.569-0.143,0.854-0.499c2.638-2.566,5.56-5.061,8.624-7.556c3.636-2.922,6.059-4.562,7.199-4.988
		c0.57-0.499,1.141-0.927,1.782-1.141c1.068-0.499,1.924-0.57,2.494-0.285c0.642,0.214,0.642,0.784-0.071,1.64
		c-3.421,4.348-6.486,9.407-9.123,14.967c-2.565,5.56-3.92,10.05-4.205,13.4c-0.143,2.209,0.285,3.92,1.354,5.061
		c0.997,1.068,2.28,1.568,3.92,1.568c0.713,0,1.354-0.072,2.066-0.285c2.709-0.785,6.13-2.922,10.192-6.344
		c4.49-3.85,6.771-6.914,6.771-9.266c0-1.996-2.139-1.283-2.139-1.781c0-0.57,1.069-0.998,1.711-0.998
		c0.784,0,1.211,0.57,1.211,1.639c0,0.498-0.143,1.211-0.427,2.066c-0.855,2.781-3.065,5.773-6.415,9.123
		c-4.633,4.562-9.551,7.057-14.825,7.627c-1.924,0.213-3.492-0.355-4.704-1.568c-1.354-1.496-1.853-3.705-1.639-6.699
		c0.284-3.35,1.853-7.697,4.49-12.9c2.209-4.348,4.562-8.411,7.341-12.188c0.143-0.214,0.214-0.499,0.214-0.713
		c0-0.784-0.428-1.141-1.283-1.141c-0.428,0-0.784,0.143-1.141,0.356c-5.345,3.777-10.762,8.98-16.321,15.466
		c-0.499,0.643-1.711,1.141-3.635,1.568C261.895,43.744,261.609,43.674,261.538,43.389z"/>
	<path fill="#339933" stroke="#339933" stroke-width="2" stroke-miterlimit="10" d="M315.279,28.849
		c-3.208,0.499-13.827,0.499-19.529,0.499c-2.139,2.851-5.061,7.127-5.346,11.617c-0.214,4.205,2.352,5.203,4.775,4.918
		c3.136-0.355,7.056-1.924,9.622-3.42c0.784-0.428,1.354-0.072,0.57,0.498c-1.996,1.426-6.059,3.85-9.551,4.49
		c-2.852,0.498-7.271-2.779-7.128-6.486c0.499-10.406,11.832-21.952,18.46-24.447c3.564-1.354,5.845,3.564,4.276,6.344
		c-1.496,2.637-5.487,4.562-10.191,5.274c5.202,0,10.976,0,14.041-0.356c1.995-0.214,4.276-1.497,5.416-2.495
		c0.428-0.641,0.998-0.356,0.499,0.285C320.268,26.568,317.916,28.493,315.279,28.849z M307.011,19.084
		c-3.492,1.995-7.27,5.56-10.477,9.052c4.989,0,10.904-2.495,13.186-5.916C311.715,19.156,309.862,17.516,307.011,19.084z"/>
	<path fill="#339933" stroke="#339933" stroke-width="2" stroke-miterlimit="10" d="M305.586,80.736
		c-2.495-2.779-2.923-6.271-2.923-10.334c0-6.771,2.78-16.395,8.197-28.795c4.774-10.977,9.692-19.815,14.539-26.799
		c0.642-0.713,0.855-1.354,0.855-2.139c0-0.855-0.356-1.497-1.283-1.995c-1.781-0.713-2.352-1.497-1.995-2.21
		c0.285-0.57,2.922-0.855,7.412-0.855c0.356,0-0.214-0.356,0-0.642c4.49-7.056,10.834-14.111,17.319-21.667
		c0.356-0.428,1.711-0.998,3.992-1.853c2.28-0.784,2.922-1.212,4.062-1.212c0.57,0,0.783,0.285,0.783,0.642
		c0,0.285-0.213,0.356-0.712,0.499c-4.49,0.926-11.832,8.41-22.166,22.594c-0.713,0.997-0.57,1.639,0.498,1.639h10.335
		c5.56,0,8.624,0.071,9.408,0.071c0.499,0,0.713,0.071,0.855,0.214c0,0.143-0.57,1.354-1.426,1.426
		c-5.417,0.214-12.401,0.713-21.239,1.141c-0.784,0.143-1.426,0.57-1.782,1.14c-4.989,7.413-9.479,14.397-13.685,22.95
		c-6.628,13.471-10.405,24.661-11.189,33.428c-0.071,1.211-0.071,2.281-0.071,3.42c0,8.268,2.922,12.402,8.767,12.402
		c1.639,0,3.421-0.213,5.56-0.926c5.915-1.854,11.76-5.988,17.89-12.473c6.129-6.486,9.551-12.26,10.334-17.32
		c0-4.42-1.639-6.414-4.775-5.916c-1.425,0.215-2.494,1.141-2.993,1.141c-0.428,0-0.642-0.285-0.57-0.643
		c0.428-0.783,1.069-1.211,3.563-2.209c0.285-0.07,0.57-0.07,0.855-0.07c1.568,0,2.923,0.926,4.348,3.064
		c1.354,2.066,2.139,3.777,1.996,4.846c-0.855,6.273-5.488,13.115-13.613,20.457c-8.196,7.412-15.396,11.26-21.738,11.26
		C311.216,85.012,308.08,83.445,305.586,80.736z"/>
</g>
<g>
	<g>
		<path fill="#FBFBFF" stroke="#322E22" stroke-width="2" stroke-miterlimit="10" d="M60.363,21.956
			C39.015,6.915-0.848-3.151-46.662-3.151s-85.989,10.149-107.342,25.19l-17.496-0.195V-7.857
			c1-27.688,56.312-49.036,124.511-49.036C21.204-56.893,76.5-35.656,76.5-7.969v29.813L60.363,21.956z"/>
	</g>
	<g>
		<polygon fill="#CD0F22" points="-97.699,22.188 6.833,22.188 -45.15,-11.786 		"/>
		<polygon fill="#CD0F22" points="-97.699,31.188 6.833,31.188 -45.15,79.609 		"/>
		<polygon fill="#339933" points="-5.5,12.824 -5.5,36.028 69.925,23.836 		"/>
		<polygon fill="#339933" points="-86.5,12.824 -86.5,36.028 -161.926,23.836 		"/>
		<g>
			<polygon fill="#336699" points="-88.474,24.057 -49.159,36.252 -121.08,66.135 			"/>
			<polygon fill="#336699" points="-88.474,24.057 -49.159,13.045 -111.129,-6.426 			"/>
		</g>
		<g>
			<polygon fill="#336699" points="-1.827,24.057 -41.145,36.252 30.777,66.135 			"/>
			<polygon fill="#336699" points="-1.827,24.057 -41.145,13.045 20.825,-6.426 			"/>
		</g>
		<ellipse fill="#FFCC33" cx="-45.15" cy="24.916" rx="45.871" ry="15.811"/>
	</g>
	<g>
		<path fill="none" stroke="#322E22" stroke-width="4.8856" stroke-miterlimit="10" d="M-1.146,37.77"/>
		<g>
			<path fill="#FBFBFF" stroke="#322E22" stroke-width="2" stroke-miterlimit="10" d="M76.5-6.721c0,0,0-1.164,0-1.137
				c0,9.118-5.224,17.056-15.694,24.428C46.752,26.461,25.011,33.921-1.531,38.078l-43.857,23.143L2.99,87.088
				C46.655,79.34,76.5,61.945,76.5,41.367V-6.721z"/>
		</g>
		<g>
			<path fill="#FBFBFF" stroke="#322E22" stroke-width="2" stroke-miterlimit="10" d="M-171.5-6.721c0,0,0-1.164,0-1.137
				c0,9.118,7.463,17.056,17.931,24.428c14.054,9.891,36.912,17.351,63.45,21.507l44.424,23.143l-50.338,25.867
				C-139.698,79.34-171.5,61.945-171.5,41.367V-6.721z"/>
		</g>
	</g>
</g>
</svg>
